<?xml version="1.0" encoding="utf-8"?>
<!-- Generator: Adobe Illustrator 24.1.3, SVG Export Plug-In . SVG Version: 6.00 Build 0)  -->
<svg version="1.1" id="Layer_1" xmlns="http://www.w3.org/2000/svg" xmlns:xlink="http://www.w3.org/1999/xlink" x="0px" y="0px"
	 viewBox="0 0 122.9 71.9" style="enable-background:new 0 0 122.9 71.9;" xml:space="preserve">
<style type="text/css">
	.st0{fill:#FFFFFF;}
</style>
<g>
	<path class="st0" d="M29.6,0h88c1.6,0,2.9,0.6,3.9,1.7c1,1,1.5,2.5,1.4,4l-4.4,60.5c-0.1,1.2-0.5,2.3-1.2,3.2
		c-0.1,0.3-0.3,0.6-0.6,0.8c-0.2,0.2-0.4,0.3-0.6,0.4c-1.1,0.8-2.4,1.3-3.7,1.3h-88c-1.6,0-3-0.6-3.9-1.7s-1.5-2.5-1.4-4L20.3,56
		h4.4l-1.1,7.8l0,0l33.1-30.9l-29-25.1l-0.3,3.9H23l0.4-5.9c0.1-1.6,0.9-3,2-4C26.5,0.6,28,0,29.6,0L29.6,0L29.6,0z M2.2,49.8
		c-1.2,0-2.2-1-2.2-2.2s1-2.2,2.2-2.2h28.9c1.2,0,2.2,1,2.2,2.2s-1,2.2-2.2,2.2H2.2L2.2,49.8z M13,36.2c-1.2,0-2.2-1-2.2-2.2
		s1-2.2,2.2-2.2h25.1c1.2,0,2.2,1,2.2,2.2s-1,2.2-2.2,2.2H13L13,36.2z M2.2,22.7c-1.2,0-2.2-1-2.2-2.2s1-2.2,2.2-2.2h28.9
		c1.2,0,2.2,1,2.2,2.2s-1,2.2-2.2,2.2H2.2L2.2,22.7z M59.9,35.6L25.7,67.5h85.5L83.2,35.6l-10.6,8.5l0,0c-0.8,0.7-2,0.7-2.8,0
		L59.9,35.6L59.9,35.6L59.9,35.6z M86.7,32.8L114.2,64l4.1-56.6L86.7,32.8L86.7,32.8L86.7,32.8z M30.7,4.4l40.7,35.3l44-35.3
		L30.7,4.4L30.7,4.4L30.7,4.4z"/>
</g>
</svg>
