<?xml version="1.0" encoding="utf-8"?>
<!-- Generator: Adobe Illustrator 24.1.3, SVG Export Plug-In . SVG Version: 6.00 Build 0)  -->
<svg version="1.1" id="Layer_1" xmlns="http://www.w3.org/2000/svg" xmlns:xlink="http://www.w3.org/1999/xlink" x="0px" y="0px"
	 viewBox="0 0 32 32" style="enable-background:new 0 0 32 32;" xml:space="preserve">
<style type="text/css">
	.st0{fill:#FFFFFF;}
</style>
<path class="st0" d="M30.2,12l-2.5-2.5c-0.4-0.4-1-0.4-1.4,0c0,0,0,0,0,0c-1,1-2.6,1-3.6,0c-1-1-1-2.6,0-3.6c0.4-0.4,0.4-1,0-1.4
	L20.2,2c-0.4-0.4-1-0.4-1.4,0L2.4,18.3c-0.4,0.4-0.4,1,0,1.4c0,0,0,0,0,0l2.5,2.5c0.4,0.4,1,0.4,1.4,0c0,0,0,0,0,0c1-1,2.6-1,3.6,0
	s1,2.6,0,3.6l0,0c-0.4,0.4-0.4,1,0,1.4l2.5,2.5c0.4,0.4,1,0.4,1.4,0c0,0,0,0,0,0l16.3-16.4C30.6,13.1,30.7,12.4,30.2,12
	C30.3,12,30.3,12,30.2,12z M24.6,16.2l-0.8-0.8l-1.4,1.4l0.8,0.8l-10,10L12,26.5c1.3-2.1,0.7-4.9-1.4-6.3c-1.5-0.9-3.4-0.9-4.9,0
	L4.6,19l10-10l0.8,0.8l1.4-1.4L16,7.6l3.5-3.5l1.2,1.2c-1.3,2.1-0.7,4.9,1.4,6.3c1.5,1,3.4,1,4.9,0l1.2,1.2L24.6,16.2z M22,13.8
	c0.2,0.2,0.2,0.5,0,0.7l-0.7,0.7c-0.2,0.2-0.5,0.2-0.7,0l-0.7-0.7c-0.2-0.2-0.2-0.5,0-0.7l0.7-0.7c0.2-0.2,0.5-0.2,0.7,0L22,13.8z
	 M19.1,11c0.2,0.2,0.2,0.5,0,0.7l-0.7,0.7c-0.2,0.2-0.5,0.2-0.7,0L17,11.7c-0.2-0.2-0.2-0.5,0-0.7c0,0,0,0,0,0l0.7-0.7
	c0.2-0.2,0.5-0.2,0.7,0c0,0,0,0,0,0L19.1,11z"/>
</svg>
